#define ediff-prev_width 15
#define ediff-prev_height 15
static char ediff-prev_bits[] = {
 0x00,0x80,0x00,0x81,0x80,0x81,0x40,0x81,0x20,0xbf,0x50,0xa0,0xe8,0xaf,0xfc,
 0xaf,0xf8,0xaf,0xf0,0xbf,0xe0,0xbf,0xc0,0x81,0x80,0x81,0x00,0x81,0x00,0x80
 };
