/* XPM */
static char *ediff-B-up[] = {
/* width height num_colors chars_per_pixel */
"    15    15        2            1",
/* colors */
". c gray60",
"# c Gray75 s backgroundToolBarColor",
/* pixels */
"###############",
"###############",
"###......######",
"###.......#####",
"###...##...####",
"###...###..####",
"###.......#####",
"###........####",
"###...###...###",
"###...####..###",
"###...###...###",
"###........####",
"###.......#####",
"###############",
"###############",
"###############"
};
