#define ediff-toggle-split-up_width 15
#define ediff-toggle-split-up_height 15
static char ediff-toggle-split-up_bits[] = {
 0x00,0x80,0xfe,0x87,0xfe,0x87,0x00,0x80,0x00,0xb0,0x7e,0xb0,0x1e,0xb0,0x1e,
 0xb0,0x3e,0xb2,0x72,0xb3,0xe2,0xb3,0xc0,0xb3,0xc0,0xb3,0xf0,0xb7,0x00,0x80
 };
