#define disk-xx_width 15
#define disk-xx_height 15
static char disk-xx_bits[] = {
 0x00,0x00,0x0a,0x28,0x00,0x00,0x0a,0x28,0x00,0x00,0x0a,0x28,0x00,0x00,0xfa,
 0x2f,0x00,0x00,0x02,0x20,0x00,0x00,0x0a,0x29,0x00,0x00,0xf8,0x3f,0x00,0x00
 };
