#define ediff-help_width 15
#define ediff-help_height 15
static char ediff-help_bits[] = {
 0x00,0x80,0xf0,0x83,0x0c,0x86,0xe4,0x8c,0x74,0x8d,0xb4,0x8c,0x58,0x86,0x20,
 0x83,0xa0,0x83,0xa0,0x81,0xc0,0x80,0x20,0x83,0x20,0x83,0xc0,0x81,0x00,0x80
 };
