#define ediff-B-up_width 15
#define ediff-B-up_height 15
static char ediff-B-up_bits[] = {
 0x00,0x80,0x00,0x80,0xf8,0x81,0xf8,0x83,0x38,0x87,0x38,0x86,0xf8,0x83,0xf8,
 0x87,0x38,0x8e,0x38,0x8c,0x38,0x8e,0xf8,0x87,0xf8,0x83,0x00,0x80,0x00,0x80
 };
