#define ediff-next_width 15
#define ediff-next_height 15
static char ediff-next_bits[] = {
 0x00,0x80,0x80,0x80,0x80,0x83,0x80,0x82,0xfe,0x8c,0x02,0x8a,0xfa,0xb7,0xfa,
 0xbf,0xfa,0x9f,0xfe,0x8f,0xfe,0x87,0x80,0x83,0x80,0x81,0x80,0x80,0x00,0x80
 };
