/* XPM */
static char * left-arrow_xpm[] = {
/* width height num_colors chars_per_pixel */
"15 15 3 1",
" 	c Gray75 s backgroundToolBarColor",
".	c black",
"X	c white",
"               ",
"        .      ",
"       ..      ",
"      .X.      ",
"     .XX...... ",
"    .X.XXXXXX. ",
"   .X.......X. ",
"  ..........X. ",
"   .........X. ",
"    .......... ",
"     ......... ",
"      ...      ",
"       ..      ",
"        .      ",
"               ",
};
