#define ediff-A-up_width 15
#define ediff-A-up_height 15
static char ediff-A-up_bits[] = {
 0x00,0x80,0x00,0x80,0x00,0x80,0xc0,0x81,0xe0,0x83,0x60,0x83,0x70,0x87,0x30,
 0x86,0x38,0x8e,0xf8,0x8f,0x18,0x8c,0x18,0x8c,0x00,0x80,0x00,0x80,0x00,0x80
 };
