#define ediff-update_width 15
#define ediff-update_height 15
static char ediff-update_bits[] = {
 0x00,0x80,0x78,0x80,0xcc,0x99,0x04,0x9b,0x04,0x9c,0x04,0x9e,0x0c,0x9f,0x00,
 0x80,0x7c,0x98,0x3c,0x90,0x1c,0x90,0x6c,0x90,0xcc,0x99,0x00,0x8f,0x00,0x80
 };
