#define ediff-quit_width 15
#define ediff-quit_height 15
static char ediff-quit_bits[] = {
 0x00,0x80,0x06,0xb0,0x1e,0x98,0x3c,0x8c,0x70,0x82,0xe0,0x83,0xc0,0x81,0xe0,
 0x83,0x70,0x86,0x38,0x8c,0x1c,0x88,0x1c,0x90,0x08,0x80,0x00,0x80,0x00,0x80
 };
