/* XPM */
static char *help[] = {
/* width height num_colors chars_per_pixel */
"    15    15        2           1",
/* colors */
"# c #000000",
"a c Gray75 s backgroundToolBarColor",
/* pixels */
"aaaaaaaaaaaaaaa",
"aaaaaaa#aaaaaaa",
"aa#aaaa#aaaa#aa",
"aa##aaa#aaa##aa",
"aaa##aa#aa##aaa",
"aaaa#######aaaa",
"aaaaa#####aaaaa",
"aaaaa#####aaaaa",
"aaaaa#####aaaaa",
"aaaa#######aaaa",
"aaa##aa#aa##aaa",
"aa##aaa#aaa##aa",
"aa#aaaa#aaaa#aa",
"aaaaaaa#aaaaaaa",
"aaaaaaaaaaaaaaa",
};
