/* XPM */
static char * disk[] = {
"15 15 5 1",
"X	c Gray75 s backgroundToolBarColor",
"o	c Gray60",
"O	c Gray60",
"+	c Gray90",
"@	c Gray40",
"XXXXXXXXXXXXXXX",
"XXXXXXXXXXXXXXX",
"XoooooooooooooX",
"XoOo+++++++oOoX",
"XoOo+++++++oOoX",
"XoOo+++++++oOoX",
"XoOo+++++++oOoX",
"XoOoooooooooOoX",
"XoOOOOOOOOOOOoX",
"XoOoooooooooOoX",
"XoOo@@@@o++oOoX",
"XoOo@@@@o++oOoX",
"XoOo@@@@o++oOoX",
"XXooooooooooooX",
"XXXXXXXXXXXXXXX",
"XXXXXXXXXXXXXXX"
};
