#define ediff-refine_width 15
#define ediff-refine_height 15
static char ediff-refine_bits[] = {
 0x00,0x80,0x80,0x80,0x84,0x90,0x8c,0x98,0x98,0x8c,0xf0,0x87,0xe0,0x83,0xe0,
 0x83,0xe0,0x83,0xf0,0x87,0x98,0x8c,0x8c,0x98,0x84,0x90,0x80,0x80,0x00,0x80
 };
